<svg width="151" height="50" viewBox="0 0 151 50" fill="none" xmlns="http://www.w3.org/2000/svg">
<path d="M20.0663 7.5979L24.4512 10.9106L21.7726 14.3188C23.622 16.4115 24.3036 18.7995 24.3036 21.4305C24.3036 24.4002 23.1835 28.59 19.2371 30.3918C23.2313 32.389 24.2038 35.2632 24.2038 38.3327C24.2038 44.9582 19.1373 49.048 12.1735 49.048C5.20978 49.048 0 44.8105 0 38.3327H5.8914C5.8914 41.4501 8.76546 43.495 12.1735 43.495C15.5816 43.495 18.2603 41.6454 18.2603 38.3327C18.2603 35.02 15.1431 33.5091 12.1735 33.5091C4.67578 33.5091 0 28.933 0 21.4305C0 13.9281 5.45291 9.25208 12.1779 9.25208C14.0794 9.25208 16.0244 9.49522 17.6829 10.6154L20.0663 7.5979ZM5.8914 21.4305C5.8914 25.6203 8.7177 28.1037 12.1735 28.1037C15.5816 28.1037 18.4079 25.5725 18.4079 21.4305C18.4079 17.2886 15.5859 14.6618 12.1779 14.6618C8.7177 14.6618 5.8914 17.2408 5.8914 21.4305Z" fill="white"/>
<path d="M68.8953 0V34.0475H63.0039V0H68.8953Z" fill="white"/>
<path d="M95.369 22.0645C95.369 28.9808 90.6455 34.5816 82.8525 34.5816C75.0596 34.5816 70.3838 28.9808 70.3838 22.0645C70.3838 15.1959 75.1551 9.54736 82.8048 9.54736C90.4545 9.54736 95.369 15.1959 95.369 22.0645ZM76.3229 22.0645C76.3229 25.7158 78.5154 29.1284 82.8482 29.1284C87.181 29.1284 89.3735 25.7202 89.3735 22.0645C89.3735 18.4609 86.8424 14.9528 82.8482 14.9528C78.5632 14.9528 76.3229 18.4609 76.3229 22.0645Z" fill="white"/>
<path d="M102.798 0V13.2986C104.209 10.8152 108.155 9.45186 110.686 9.45186C117.698 9.45186 122.912 13.7371 122.912 22.0167C122.912 29.9056 117.602 34.5816 110.543 34.5816C107.621 34.5816 104.652 33.609 102.798 30.7348L102.407 34.0475H96.8545V0H102.798ZM103.184 22.0167C103.184 26.3497 106.397 29.0806 110.148 29.0806C113.947 29.0806 116.969 26.2064 116.969 22.0167C116.969 17.6837 113.947 15.0049 110.148 15.0049C106.401 15.0005 103.184 17.827 103.184 22.0167Z" fill="white"/>
<path d="M131.747 26.2022C133.127 28.8593 136.288 29.9925 140.226 28.5597C142.283 27.8086 144.702 26.0502 145.5 24.2571L150.354 26.4801C148.874 29.8188 145.418 32.4239 141.984 33.6743C134.204 36.505 127.831 33.3834 125.2 26.1501C122.699 19.2859 125.569 12.6431 132.893 9.97731C140.443 7.22902 146.859 10.1814 149.369 19.7895L131.747 26.2022ZM142.331 17.115C140.899 14.319 138.077 13.6895 134.873 14.853C131.851 15.9515 129.915 18.3177 130.158 21.5436L142.331 17.115Z" fill="white"/>
<path fill-rule="evenodd" clip-rule="evenodd" d="M54.174 16.3354C52.2479 12.3168 48.2325 9.54736 42.8761 9.54736C35.2264 9.54736 30.4551 15.1959 30.4551 22.0645C30.4551 26.4495 32.3346 30.3057 35.6965 32.541C35.888 32.3977 36.0034 32.3046 36.0034 32.3046C37.6803 31.2105 39.3161 30.0587 40.9081 28.8518C37.9088 27.9692 36.3942 25.0993 36.3942 22.0645C36.3942 18.4609 38.6388 14.9528 42.9195 14.9528C46.6893 14.9528 49.1557 18.0778 49.421 21.4586C51.0734 19.8186 52.6592 18.1096 54.174 16.3354ZM42.3174 34.5701C47.061 31.2078 51.4471 27.3669 55.4037 23.1112C54.9508 29.5372 50.3196 34.5816 42.9238 34.5816C42.7195 34.5816 42.5174 34.5777 42.3174 34.5701Z" fill="#8DD3BB"/>
<path d="M59.0177 6.18257C52.9483 3.95094 48.5851 8.75285 48.5851 8.75285L52.7226 11.1581C54.2725 10.2681 54.9628 11.1321 55.1408 11.6053C55.2667 11.9397 55.0974 12.3044 54.9628 12.5041L53.9556 13.7762C48.52 20.3321 42.1293 26.0284 34.9963 30.6827C34.9963 30.6827 32.8429 32.4194 31.6968 32.4455C30.7329 32.4672 30.3031 31.6553 31.115 30.4917L29.1179 25.985C29.1179 25.985 23.9212 29.3889 24.9284 35.3718C25.3538 37.8986 27.7286 39.6961 30.251 39.2402C31.5405 39.0101 33.1338 38.3805 35.0831 37.0911L38.6692 34.7466C45.8022 30.0836 52.1973 24.3699 57.6285 17.8053L58.8614 16.3161C60.7196 14.2017 61.5532 12.4607 61.8353 11.0843C62.2695 8.97862 61.0235 6.92066 59.0177 6.18257Z" fill="#8DD3BB"/>
</svg>
